<?xml version="1.0" encoding="UTF-8"?>
<svg xmlns="http://www.w3.org/2000/svg" xmlns:xlink="http://www.w3.org/1999/xlink" width="16px" height="px" viewBox="0 0 16 16" version="1.1">
<g id="surface1">
<path style=" stroke:none;fill-rule:nonzero;fill:rgb(0%,0%,0%);fill-opacity:1;" d="M 3.085938 0.0664062 C 3.015625 0.101562 2.945312 0.175781 2.90625 0.25 C 2.84375 0.371094 2.84375 0.429688 2.84375 4.25 C 2.84375 8.074219 2.84375 8.128906 2.90625 8.25 C 2.945312 8.332031 3.011719 8.398438 3.09375 8.4375 C 3.207031 8.492188 3.273438 8.5 3.96875 8.5 L 4.71875 8.5 L 4.71875 10.375 L 3.96875 10.375 C 3.273438 10.375 3.207031 10.382812 3.09375 10.4375 C 2.875 10.550781 2.84375 10.65625 2.84375 11.3125 C 2.84375 11.96875 2.875 12.074219 3.09375 12.1875 C 3.203125 12.242188 3.277344 12.25 3.78125 12.25 C 4.4375 12.25 4.542969 12.21875 4.65625 12 C 4.710938 11.886719 4.71875 11.820312 4.71875 11.125 L 4.71875 10.375 L 6.59375 10.375 L 6.59375 11.125 C 6.59375 11.820312 6.601562 11.886719 6.65625 12 C 6.695312 12.082031 6.761719 12.148438 6.84375 12.1875 C 6.960938 12.246094 7.023438 12.25 7.953125 12.25 L 8.9375 12.25 L 8.9375 14.125 L 8.1875 14.125 C 7.492188 14.125 7.425781 14.132812 7.3125 14.1875 C 7.09375 14.300781 7.0625 14.40625 7.0625 15.0625 C 7.0625 15.566406 7.070312 15.640625 7.125 15.75 C 7.238281 15.96875 7.34375 16 8 16 C 8.65625 16 8.761719 15.96875 8.875 15.75 C 8.929688 15.636719 8.9375 15.570312 8.9375 14.875 L 8.9375 14.125 L 10.8125 14.125 L 10.8125 14.875 C 10.8125 15.570312 10.820312 15.636719 10.875 15.75 C 10.988281 15.96875 11.09375 16 11.75 16 C 12.40625 16 12.511719 15.96875 12.625 15.75 C 12.679688 15.640625 12.6875 15.566406 12.6875 15.0625 C 12.6875 14.40625 12.65625 14.300781 12.4375 14.1875 C 12.324219 14.132812 12.257812 14.125 11.5625 14.125 L 10.8125 14.125 L 10.8125 12.25 L 11.796875 12.25 C 12.726562 12.25 12.789062 12.246094 12.90625 12.1875 C 12.988281 12.148438 13.054688 12.082031 13.09375 12 C 13.15625 11.878906 13.15625 11.824219 13.15625 7.828125 L 13.15625 3.78125 L 9.773438 3.78125 L 9.648438 3.710938 C 9.574219 3.667969 9.5 3.59375 9.464844 3.523438 C 9.410156 3.414062 9.40625 3.316406 9.40625 1.703125 L 9.40625 0 L 6.304688 0 C 3.277344 0.00390625 3.199219 0.00390625 3.085938 0.0664062 Z M 8.21875 1.96875 C 8.359375 2.039062 8.46875 2.21875 8.46875 2.375 C 8.46875 2.53125 8.359375 2.710938 8.21875 2.78125 C 8.101562 2.839844 8.039062 2.84375 6.589844 2.84375 C 5.089844 2.84375 5.085938 2.84375 4.960938 2.773438 C 4.648438 2.597656 4.644531 2.167969 4.957031 1.980469 L 5.078125 1.90625 L 6.585938 1.90625 C 8.039062 1.90625 8.101562 1.910156 8.21875 1.96875 Z M 8.21875 3.84375 C 8.359375 3.914062 8.46875 4.09375 8.46875 4.25 C 8.46875 4.40625 8.359375 4.585938 8.21875 4.65625 C 8.101562 4.714844 8.039062 4.71875 6.589844 4.71875 C 5.089844 4.71875 5.085938 4.71875 4.960938 4.648438 C 4.648438 4.472656 4.644531 4.042969 4.957031 3.855469 L 5.078125 3.78125 L 6.585938 3.78125 C 8.039062 3.78125 8.101562 3.785156 8.21875 3.84375 Z M 11.03125 5.71875 C 11.171875 5.789062 11.28125 5.96875 11.28125 6.125 C 11.28125 6.28125 11.171875 6.460938 11.03125 6.53125 C 10.914062 6.59375 10.851562 6.59375 7.996094 6.59375 L 5.085938 6.59375 L 4.960938 6.523438 C 4.648438 6.347656 4.644531 5.917969 4.957031 5.730469 L 5.078125 5.65625 L 7.992188 5.65625 C 10.851562 5.65625 10.914062 5.65625 11.03125 5.71875 Z M 10.5625 8.5625 C 10.644531 8.601562 10.710938 8.667969 10.75 8.75 C 10.808594 8.867188 10.8125 8.929688 10.8125 10.5625 L 10.8125 12.25 L 8.9375 12.25 L 8.9375 10.554688 C 8.941406 8.648438 8.929688 8.722656 9.175781 8.574219 C 9.289062 8.503906 9.320312 8.5 9.867188 8.5 C 10.382812 8.5 10.453125 8.507812 10.5625 8.5625 Z M 10.5625 8.5625 "/>
<path style=" stroke:none;fill-rule:nonzero;fill:rgb(0%,0%,0%);fill-opacity:1;" d="M 10.34375 1.421875 L 10.34375 2.84375 L 13.15625 2.84375 L 13.15625 2.5625 C 13.15625 2.359375 13.140625 2.25 13.105469 2.179688 C 13.039062 2.050781 11.148438 0.128906 11.019531 0.0546875 C 10.945312 0.015625 10.84375 0.00390625 10.632812 0 L 10.34375 0 Z M 10.34375 1.421875 "/>
<path style=" stroke:none;fill-rule:nonzero;fill:rgb(0%,0%,0%);fill-opacity:1;" d="M 3.085938 14.191406 C 2.875 14.300781 2.84375 14.414062 2.84375 15.0625 C 2.84375 15.71875 2.875 15.824219 3.09375 15.9375 C 3.203125 15.992188 3.277344 16 3.78125 16 C 4.4375 16 4.542969 15.96875 4.65625 15.75 C 4.710938 15.640625 4.71875 15.566406 4.71875 15.0625 C 4.71875 14.40625 4.6875 14.300781 4.46875 14.1875 C 4.359375 14.132812 4.289062 14.125 3.773438 14.125 C 3.269531 14.128906 3.191406 14.132812 3.085938 14.191406 Z M 3.085938 14.191406 "/>
</g>
</svg>
