<?xml version="1.0" encoding="UTF-8"?>
<svg xmlns="http://www.w3.org/2000/svg" xmlns:xlink="http://www.w3.org/1999/xlink" width="16px" height="px" viewBox="0 0 16 16" version="1.1">
<g id="surface1">
<path style=" stroke:none;fill-rule:nonzero;fill:rgb(0%,0%,0%);fill-opacity:1;" d="M 7.515625 0.03125 C 6.847656 0.132812 6.171875 0.480469 5.683594 0.964844 C 5.269531 1.382812 4.976562 1.898438 4.808594 2.5 C 4.742188 2.757812 4.738281 2.820312 4.726562 4.195312 L 4.714844 5.625 L 5.65625 5.625 L 5.65625 4.34375 C 5.65625 3.296875 5.664062 3.015625 5.707031 2.820312 C 5.964844 1.554688 7.210938 0.726562 8.460938 0.988281 C 8.769531 1.050781 8.964844 1.128906 9.234375 1.296875 C 9.613281 1.53125 9.957031 1.925781 10.144531 2.339844 C 10.320312 2.734375 10.320312 2.753906 10.335938 4.242188 L 10.347656 5.625 L 11.285156 5.625 L 11.273438 4.195312 C 11.261719 2.863281 11.257812 2.75 11.195312 2.53125 C 11.015625 1.882812 10.734375 1.382812 10.304688 0.957031 C 9.878906 0.53125 9.375 0.246094 8.78125 0.0976562 C 8.476562 0.0195312 7.820312 -0.015625 7.515625 0.03125 Z M 7.515625 0.03125 "/>
<path style=" stroke:none;fill-rule:nonzero;fill:rgb(0%,0%,0%);fill-opacity:1;" d="M 1.078125 3.792969 C 0.816406 3.859375 0.617188 3.972656 0.417969 4.171875 C -0.121094 4.710938 -0.136719 5.539062 0.382812 6.113281 C 0.472656 6.210938 0.613281 6.316406 0.734375 6.378906 L 0.9375 6.484375 L 0.9375 9.40625 L 4.25 9.40625 L 4.25 10.34375 L 0.9375 10.34375 L 0.9375 13.265625 L 0.773438 13.339844 C 0.570312 13.433594 0.257812 13.742188 0.160156 13.945312 C -0.117188 14.523438 -0.0234375 15.136719 0.421875 15.578125 C 1.085938 16.242188 2.203125 16.082031 2.632812 15.257812 C 2.863281 14.816406 2.867188 14.394531 2.652344 13.945312 C 2.550781 13.742188 2.242188 13.433594 2.039062 13.339844 L 1.875 13.265625 L 1.875 11.28125 L 4.25 11.28125 L 4.25 12.21875 L 5.34375 12.21875 L 5.34375 13.246094 L 5.15625 13.347656 C 4.910156 13.476562 4.648438 13.757812 4.523438 14.023438 C 4.429688 14.222656 4.421875 14.253906 4.421875 14.59375 C 4.421875 14.933594 4.429688 14.964844 4.523438 15.164062 C 4.640625 15.414062 4.882812 15.683594 5.109375 15.8125 C 5.960938 16.300781 7.035156 15.773438 7.1875 14.789062 C 7.273438 14.222656 6.972656 13.621094 6.460938 13.359375 L 6.28125 13.265625 L 6.28125 12.21875 L 9.71875 12.21875 L 9.71875 13.265625 L 9.539062 13.359375 C 9.023438 13.628906 8.726562 14.21875 8.8125 14.789062 C 8.9375 15.617188 9.746094 16.160156 10.546875 15.953125 C 10.945312 15.847656 11.292969 15.554688 11.476562 15.164062 C 11.570312 14.964844 11.578125 14.933594 11.578125 14.59375 C 11.578125 14.253906 11.570312 14.222656 11.476562 14.023438 C 11.351562 13.757812 11.089844 13.476562 10.84375 13.347656 L 10.65625 13.246094 L 10.65625 12.21875 L 11.75 12.21875 L 11.75 11.28125 L 14.125 11.28125 L 14.125 13.265625 L 13.960938 13.339844 C 13.757812 13.433594 13.445312 13.742188 13.347656 13.945312 C 13.070312 14.523438 13.164062 15.136719 13.609375 15.578125 C 14.273438 16.242188 15.390625 16.082031 15.820312 15.257812 C 16.050781 14.816406 16.054688 14.394531 15.839844 13.945312 C 15.738281 13.742188 15.429688 13.433594 15.226562 13.339844 L 15.0625 13.265625 L 15.0625 10.34375 L 11.75 10.34375 L 11.75 9.40625 L 15.0625 9.40625 L 15.0625 6.484375 L 15.226562 6.40625 C 15.429688 6.3125 15.742188 6.007812 15.839844 5.804688 C 16.117188 5.226562 16.023438 4.613281 15.578125 4.167969 C 15.027344 3.617188 14.164062 3.617188 13.605469 4.171875 C 13.066406 4.710938 13.050781 5.539062 13.570312 6.113281 C 13.660156 6.210938 13.800781 6.316406 13.921875 6.378906 L 14.125 6.484375 L 14.125 8.46875 L 11.75 8.46875 L 11.75 6.5625 L 4.25 6.5625 L 4.25 8.46875 L 1.875 8.46875 L 1.875 6.484375 L 2.039062 6.40625 C 2.242188 6.3125 2.554688 6.007812 2.652344 5.804688 C 2.929688 5.226562 2.835938 4.613281 2.390625 4.167969 C 2.039062 3.816406 1.550781 3.675781 1.078125 3.792969 Z M 8.46875 9.390625 L 8.46875 10.78125 L 7.53125 10.78125 L 7.53125 8 L 8.46875 8 Z M 8.46875 9.390625 "/>
</g>
</svg>
